<svg xmlns="http://www.w3.org/2000/svg" viewBox="0 0 3082.2937 1000" role="img" aria-label="Tenax Solutions (primary lockup)">
  <title>Tenax Solutions (primary lockup)</title>
  <g transform="translate(0.2399,10.5566) scale(2.042826,2.043989) translate(-338.79,0)">
    <path d="M480,52.07l-8.46,289.14h-67.74l-65.01-261.52,141.21-27.62ZM396.33,359.82l9.7,119.09,187.68-53,16.55-66.03h-213.99l.06-.06ZM748.29,468.8l2.24-314.33-69.61,4.59-75.89,297.95,143.26,11.85v-.06ZM790.96,133.12L760.48,0l-262.57,79.44-1.99,71.99,294.98-18.31h.06Z" fill="#fff"/>
    <circle cx="569.74" cy="250.4" r="41.33" fill="#fff"/>
  </g>
  <g transform="translate(1052.0633,121.4012) scale(1.800075,1.800033) translate(-0.13,-581.54)">
    <path d="M869.69,817.84l86.42-118.82-85.4-117.47h62.45l54.35,74.6,54.35-74.6h62.45l-85.4,117.47,86.42,118.82h-62.79l-55.02-75.61-55.02,75.61h-62.79Z" fill="#fff"/>
    <path d="M718.48,581.54h57.05l85.74,236.3h-53.67l-13.5-37.13h-94.18l-13.5,37.13h-53.68l85.74-236.3ZM718.48,730.07h57.05l-28.69-78.31-28.36,78.31Z" fill="#fff"/>
    <path d="M407.08,817.84v-236.3h54.69l86.42,144.82v-144.82h50.64v236.3h-54.69l-86.42-144.82v144.82h-50.64Z" fill="#fff"/>
    <path d="M219.51,817.84v-236.3h150.55v50.64h-99.92v33.76h76.97v50.64h-76.97v50.64h99.92v50.64h-150.55Z" fill="#fff"/>
    <path d="M185.79,581.54v50.64h-67.51v185.66h-50.64v-185.66H.13v-50.64h185.66Z" fill="#fff"/>
  </g>
  <g transform="translate(1093.0902,706.8138) scale(1.800065,1.801032) translate(-22.95,-906.77)">
    <path d="M1094.17,1000c-4.96,0-9.74-.77-14.32-2.31-4.54-1.58-8.52-3.83-11.94-6.74-3.42-2.95-5.88-6.48-7.38-10.59l14.7-5.39c.6,1.71,1.82,3.27,3.66,4.69,1.84,1.41,4.09,2.55,6.74,3.4,2.65.86,5.5,1.28,8.54,1.28s6.03-.47,8.73-1.41c2.74-.98,4.94-2.33,6.61-4.04,1.67-1.75,2.5-3.79,2.5-6.1s-.88-4.28-2.63-5.78c-1.75-1.54-4-2.76-6.74-3.66-2.74-.9-5.56-1.58-8.47-2.05-6.38-.99-12.09-2.5-17.14-4.56-5.05-2.05-9.05-4.9-12-8.54-2.91-3.64-4.37-8.35-4.37-14.12,0-5.44,1.56-10.18,4.69-14.25,3.13-4.07,7.24-7.23,12.33-9.5,5.09-2.27,10.59-3.4,16.5-3.4,4.92,0,9.67.77,14.25,2.31,4.58,1.54,8.58,3.79,12.01,6.74,3.47,2.95,5.95,6.51,7.45,10.66l-14.77,5.33c-.6-1.71-1.82-3.27-3.66-4.69-1.84-1.41-4.09-2.52-6.74-3.34-2.65-.86-5.5-1.28-8.54-1.28-3.04-.04-5.93.45-8.67,1.47-2.7.99-4.9,2.33-6.61,4.05-1.71,1.71-2.57,3.68-2.57,5.9,0,2.87.79,5.03,2.37,6.49,1.63,1.45,3.79,2.52,6.49,3.21,2.7.64,5.69,1.24,8.99,1.8,5.99.94,11.54,2.52,16.63,4.75,5.09,2.22,9.18,5.2,12.26,8.92,3.08,3.68,4.63,8.2,4.63,13.55s-1.54,10.21-4.63,14.32c-3.08,4.07-7.17,7.24-12.26,9.5-5.09,2.27-10.64,3.4-16.63,3.4Z" fill="#fff"/>
    <path d="M924.43,998.33v-89.88h16.95l37.94,61.57v-61.57h15.66v89.88h-16.88l-38.01-61.57v61.57h-15.66Z" fill="#fff"/>
    <path d="M817.12,1000c-6.08,0-11.79-1.2-17.14-3.6-5.35-2.44-10.06-5.8-14.12-10.08-4.07-4.28-7.26-9.22-9.56-14.83-2.31-5.65-3.47-11.69-3.47-18.11s1.16-12.43,3.47-18.04c2.31-5.65,5.5-10.61,9.56-14.89,4.07-4.28,8.77-7.62,14.12-10.02,5.35-2.44,11.06-3.66,17.14-3.66s11.85,1.22,17.2,3.66c5.35,2.4,10.06,5.74,14.12,10.02,4.07,4.28,7.24,9.24,9.5,14.89,2.31,5.61,3.47,11.62,3.47,18.04s-1.16,12.46-3.47,18.11c-2.27,5.61-5.44,10.55-9.5,14.83-4.06,4.28-8.77,7.64-14.12,10.08-5.35,2.39-11.08,3.6-17.2,3.6ZM817.12,984.33c3.94,0,7.64-.81,11.1-2.44,3.47-1.62,6.51-3.85,9.12-6.68,2.65-2.87,4.71-6.16,6.16-9.89,1.5-3.72,2.25-7.7,2.25-11.94s-.75-8.22-2.25-11.94c-1.5-3.77-3.57-7.06-6.23-9.89-2.61-2.83-5.65-5.05-9.12-6.68-3.42-1.63-7.11-2.44-11.04-2.44s-7.64.81-11.11,2.44c-3.47,1.62-6.53,3.87-9.18,6.74-2.61,2.83-4.67,6.1-6.16,9.82-1.45,3.72-2.18,7.7-2.18,11.94s.75,8.28,2.25,12.01c1.5,3.72,3.55,7.02,6.16,9.89,2.65,2.83,5.69,5.05,9.12,6.68,3.47,1.58,7.17,2.37,11.11,2.37Z" fill="#fff"/>
    <path d="M690.97,998.33v-89.88h15.67v89.88h-15.67Z" fill="#fff"/>
    <path d="M624.86,908.45v15.67h-27.48v74.21h-15.66v-74.21h-27.48v-15.67h70.62Z" fill="#fff"/>
    <path d="M454.2,1000c-7.19,0-13.51-1.75-18.94-5.26-5.39-3.51-9.59-8.22-12.58-14.12-3-5.95-4.49-12.54-4.49-19.78v-52.39h15.66v52.39c0,4.28.79,8.22,2.38,11.82,1.62,3.55,3.94,6.4,6.93,8.54,3.04,2.1,6.72,3.14,11.04,3.14s8.05-1.05,11.04-3.14c2.99-2.14,5.26-4.99,6.8-8.54,1.58-3.6,2.37-7.53,2.37-11.82v-52.39h15.66v52.39c0,5.44-.86,10.53-2.57,15.28-1.71,4.71-4.15,8.86-7.32,12.46-3.17,3.6-6.95,6.4-11.36,8.41-4.36,2.01-9.24,3.02-14.63,3.02Z" fill="#fff"/>
    <path d="M303.25,998.33v-89.88h15.66v74.21h37.43v15.67h-53.09Z" fill="#fff"/>
    <path d="M195.94,1000c-6.08,0-11.79-1.2-17.14-3.6-5.35-2.44-10.06-5.8-14.12-10.08-4.07-4.28-7.25-9.22-9.57-14.83-2.31-5.65-3.47-11.69-3.47-18.11s1.16-12.43,3.47-18.04c2.31-5.65,5.5-10.61,9.57-14.89,4.07-4.28,8.77-7.62,14.12-10.02,5.35-2.44,11.06-3.66,17.14-3.66s11.86,1.22,17.21,3.66c5.35,2.4,10.06,5.74,14.12,10.02,4.07,4.28,7.23,9.24,9.5,14.89,2.31,5.61,3.47,11.62,3.47,18.04s-1.16,12.46-3.47,18.11c-2.27,5.61-5.44,10.55-9.5,14.83-4.07,4.28-8.77,7.64-14.12,10.08-5.35,2.39-11.09,3.6-17.21,3.6ZM195.94,984.33c3.94,0,7.64-.81,11.11-2.44,3.47-1.62,6.51-3.85,9.12-6.68,2.65-2.87,4.71-6.16,6.16-9.89,1.5-3.72,2.25-7.7,2.25-11.94s-.75-8.22-2.25-11.94c-1.5-3.77-3.57-7.06-6.23-9.89-2.61-2.83-5.65-5.05-9.12-6.68-3.42-1.63-7.1-2.44-11.04-2.44s-7.64.81-11.11,2.44c-3.47,1.62-6.53,3.87-9.18,6.74-2.61,2.83-4.67,6.1-6.16,9.82-1.46,3.72-2.18,7.7-2.18,11.94s.75,8.28,2.25,12.01c1.5,3.72,3.55,7.02,6.16,9.89,2.65,2.83,5.69,5.05,9.12,6.68,3.47,1.58,7.17,2.37,11.11,2.37Z" fill="#fff"/>
    <path d="M56.59,1000c-4.96,0-9.74-.77-14.32-2.31-4.54-1.58-8.52-3.83-11.94-6.74-3.42-2.95-5.88-6.48-7.38-10.59l14.7-5.39c.6,1.71,1.82,3.27,3.66,4.69,1.84,1.41,4.09,2.55,6.74,3.4,2.65.86,5.5,1.28,8.54,1.28s6.04-.47,8.73-1.41c2.74-.98,4.94-2.33,6.61-4.04,1.67-1.75,2.5-3.79,2.5-6.1s-.88-4.28-2.63-5.78c-1.75-1.54-4-2.76-6.74-3.66-2.74-.9-5.56-1.58-8.47-2.05-6.38-.99-12.09-2.5-17.14-4.56-5.05-2.05-9.05-4.9-12.01-8.54-2.91-3.64-4.37-8.35-4.37-14.12,0-5.44,1.56-10.18,4.69-14.25,3.12-4.07,7.23-7.23,12.33-9.5,5.09-2.27,10.59-3.4,16.5-3.4,4.92,0,9.67.77,14.25,2.31,4.58,1.54,8.58,3.79,12.01,6.74,3.47,2.95,5.95,6.51,7.45,10.66l-14.77,5.33c-.6-1.71-1.82-3.27-3.66-4.69-1.84-1.41-4.09-2.52-6.74-3.34-2.65-.86-5.5-1.28-8.54-1.28-3.04-.04-5.93.45-8.67,1.47-2.7.99-4.9,2.33-6.61,4.05-1.71,1.71-2.57,3.68-2.57,5.9,0,2.87.79,5.03,2.38,6.49,1.63,1.45,3.79,2.52,6.48,3.21,2.7.64,5.69,1.24,8.99,1.8,5.99.94,11.53,2.52,16.63,4.75,5.09,2.22,9.18,5.2,12.26,8.92,3.08,3.68,4.62,8.2,4.62,13.55s-1.54,10.21-4.62,14.32c-3.08,4.07-7.17,7.24-12.26,9.5-5.09,2.27-10.64,3.4-16.63,3.4Z" fill="#fff"/>
  </g>
</svg>
